<svg width="256" height="256" viewBox="0 0 256 256" fill="none" xmlns="http://www.w3.org/2000/svg">
<g clip-path="url(#clip0_20_48)">
<mask id="mask0_20_48" style="mask-type:alpha" maskUnits="userSpaceOnUse" x="0" y="0" width="256" height="256">
<circle cx="128" cy="128" r="128" fill="#D9D9D9"/>
</mask>
<g mask="url(#mask0_20_48)">
<circle cx="128" cy="128" r="128" fill="black"/>
<path fill-rule="evenodd" clip-rule="evenodd" d="M156.309 252.894C154.256 253.358 152.184 253.772 150.095 254.135C147.877 254.521 145.931 254.847 144.077 255.112C141.737 255.448 139.544 255.687 137.141 255.833C135.29 255.944 133.313 256 131.048 256C129.131 256 127.027 255.96 124.838 255.88C120.618 255.726 116.078 255.423 111.943 254.969C109.786 254.732 107.739 254.455 105.905 254.135C103.889 253.784 101.889 253.386 99.9058 252.942C93.419 251.489 87.1182 249.544 81.0447 247.148C79.1501 246.4 77.2777 245.609 75.4286 244.774C73.3672 243.845 71.3349 242.862 69.3333 241.828C29.8504 221.428 2.34407 181.08 0.142569 134.114C0.0478768 132.094 0 130.061 0 128.018C0 125.824 0.0551815 123.643 0.164228 121.476C1.50364 94.8614 10.97 70.3893 26.1315 50.4922C27.3669 48.8709 28.6402 47.2799 29.9499 45.7206C31.2574 44.1641 32.6012 42.6392 33.98 41.1472C39.5023 35.1717 45.587 29.7237 52.1499 24.8874C53.785 23.6825 55.4497 22.5156 57.1429 21.3879C58.9568 20.1798 60.8033 19.0167 62.6807 17.9003C77.049 9.35662 93.2319 3.54589 110.513 1.18477C112.518 0.910807 114.538 0.683283 116.571 0.503324C118.702 0.314823 120.847 0.178509 123.005 0.0956672C124.662 0.0320837 126.327 0 128 0C154.943 0 179.942 8.32578 200.565 22.5453C202.313 23.7508 204.03 24.9987 205.714 26.2874C207.329 27.5233 208.914 28.7968 210.467 30.1066C219.28 37.5391 227.075 46.14 233.615 55.6706C234.804 57.4037 235.951 59.1676 237.056 60.9608C238.121 62.6894 239.146 64.4451 240.129 66.2269C246.836 78.3748 251.627 91.7288 254.093 105.881C254.447 107.91 254.753 109.955 255.01 112.016C255.26 114.024 255.464 116.046 255.62 118.082C255.872 121.361 256 124.674 256 128.018C256 177.541 227.884 220.496 186.745 241.787C184.718 242.836 182.66 243.832 180.571 244.774C178.722 245.609 176.85 246.4 174.955 247.148C168.949 249.518 162.72 251.446 156.309 252.894ZM174.748 234.023C168.96 236.58 162.922 238.677 156.682 240.267C156.659 234.395 156.411 227.893 155.951 220.983H175.081L174.748 234.023ZM187.105 227.647C221.075 207.444 243.81 170.376 243.81 128.018C243.81 124.627 243.664 121.273 243.38 117.961C228.363 118.211 216.715 120.327 204.965 123.908C194.904 126.973 186.231 131.092 178.763 135.991C183.85 137.651 189.673 139.357 195.568 140.756C206.508 143.352 216.606 144.616 222.805 143.376C226.106 142.716 229.317 144.857 229.977 148.159C230.637 151.46 228.496 154.672 225.195 155.332C216.156 157.14 203.751 155.229 192.753 152.618C183.257 150.365 173.994 147.38 167.297 144.926C159.849 151.789 153.937 159.628 149.308 168.031C147.474 171.562 146.072 174.45 144.765 177.548C143.344 180.916 142.037 184.533 140.411 189.496C134.867 208.098 133.966 227.492 135.514 243.711C138.582 243.565 141.201 243.245 144.488 242.717C144.547 234.948 144.157 225.633 143.309 215.39C142.869 210.081 142.393 209.12 141.714 203.457C144.637 191.377 146.631 184.105 150.692 176.024C152.533 187.219 153.96 198.342 154.959 208.791H181.333C182.977 208.791 184.551 209.455 185.698 210.632C186.845 211.809 187.468 213.399 187.427 215.042L187.105 227.647ZM145.821 150.817C150.397 144.528 155.778 138.619 162.07 133.277C171.693 125.106 183.361 118.336 197.368 113.551C198.037 105.538 199.842 94.7478 204.294 84.4826C208.056 75.8082 213.843 67.2424 222.614 61.2063C216.455 52.5006 209.125 44.6796 200.852 37.9751C185.97 50.5936 174.347 64.4314 165.514 78.0512C171.257 79.3211 177.694 80.1325 188.549 76.5139C191.742 75.4492 195.194 77.1754 196.259 80.3694C197.323 83.5634 195.597 87.0157 192.404 88.0804C176.453 93.3981 165.522 90.7426 159.102 89.1832L158.893 89.1324C148.57 107.965 143.623 125.392 142.542 137.372C143.123 139.563 144.216 143.305 144.762 145.544C142.808 147.736 140.476 149.436 135.176 159.26C133.766 152.507 132.204 145.873 130.494 139.505C124.596 117.536 119.216 106.931 106.469 85.4116L106.457 85.3912C99.6527 73.9067 91.753 62.8921 82.6115 52.6709C76.3376 45.656 69.4764 39.012 61.9784 32.8435C54.9317 37.7433 48.4532 43.4068 42.6638 49.7142C53.6774 61.3921 61.0364 72.6752 65.7402 83.0338C73.1597 99.3729 73.9893 113.502 71.9954 122.985C76.6519 125.76 80.8212 129.102 84.5437 132.887C84.8117 132.297 85.0839 131.685 85.3589 131.046C87.8777 125.191 90.6667 116.932 90.6667 105.157C90.6667 101.791 93.3956 99.0614 96.7619 99.0614C100.128 99.0614 102.857 101.791 102.857 105.157C102.857 119.046 99.5216 128.973 96.5569 135.865C95.8451 137.519 95.1564 138.994 94.5756 140.238L94.5374 140.32C93.9252 141.632 93.4819 142.588 93.1614 143.383L93.126 143.471C106.37 163.187 111.801 189.889 113.142 214.556C113.674 224.336 113.57 233.924 113.016 242.822C116.226 243.181 119.795 243.447 123.266 243.612C121.254 220.564 123.789 191.626 136.548 166.113C138.225 162.506 139.574 159.854 141.029 157.469C142.409 155.206 143.883 153.184 145.821 150.817ZM135.035 114.021C138.347 103.29 143.415 91.3944 150.484 79.2333C159.977 62.9018 173.149 45.9658 190.707 30.6221C172.637 18.9579 151.122 12.1922 128 12.1922C127.514 12.1922 127.029 12.1952 126.545 12.2011C128.954 24.3907 128.229 36.7106 126.468 47.4745C132.676 45.9012 141.929 41.245 150.848 29.1485C152.845 26.4388 156.661 25.8619 159.371 27.8601C162.08 29.8582 162.657 33.6747 160.659 36.3844C148.025 53.5203 133.543 59.4481 123.81 60.2725C122.361 66.1067 120.805 71.1861 119.613 75.0752L119.585 75.168C118.819 77.6684 118.256 79.5113 117.923 80.8321C125.605 93.8519 130.762 103.284 135.035 114.021ZM109.289 67.1111C110.522 62.9682 111.875 58.126 113.038 52.8012C115.724 40.5101 117.246 26.299 114.255 12.9983C99.4334 14.7493 85.4738 19.299 72.9108 26.1079C79.6728 31.9164 85.9237 38.0868 91.6975 44.5425C98.1419 51.7481 103.99 59.3065 109.289 67.1111ZM100.932 240.665C101.285 234.387 101.401 227.76 101.208 220.983H81.5238V234.142C87.7279 236.864 94.2159 239.058 100.932 240.665ZM69.3333 227.906V214.887C69.3333 211.52 72.0623 208.791 75.4286 208.791H100.523C98.6387 186.588 93.1538 164.694 82.2084 149.107C82.1579 149.038 82.1085 148.968 82.0602 148.897C76.7198 141.354 70.1465 135.382 62.1089 131.496C59.7667 130.363 57.2819 129.399 54.6435 128.622C50.2802 137.318 43.3297 143.29 33.5544 150.46C30.8398 152.451 27.0254 151.864 25.0347 149.149C23.044 146.434 23.6308 142.619 26.3454 140.628C33.9603 135.043 38.6786 130.972 41.7862 126.471C33.3182 126.008 23.5241 127.149 12.2146 130.404C13.0541 171.947 35.7626 208.14 69.3333 227.906ZM12.6474 117.652C27.5935 113.816 40.7276 113.252 52.2156 115.495C55.0908 116.057 57.8531 116.792 60.5046 117.692C61.2552 110.993 60.3747 100.703 54.6408 88.0754C50.6871 79.3687 44.4293 69.5788 34.8394 59.1979C22.5308 75.8331 14.577 95.8689 12.6474 117.652ZM92.0537 141.918L90.536 142.99L90.5444 142.983L92.0537 141.918ZM229.131 71.533C222.891 75.9607 218.534 82.2876 215.477 89.3345C212.487 96.2295 210.865 103.568 210.025 109.875C219.731 107.504 229.805 106.095 241.684 105.801C239.312 93.5839 235.02 82.0538 229.131 71.533Z" fill="white"/>
</g>
</g>
<defs>
<clipPath id="clip0_20_48">
<rect width="256" height="256" fill="white"/>
</clipPath>
</defs>
</svg>
